<?xml version="1.0" standalone="no"?><!DOCTYPE svg PUBLIC "-//W3C//DTD SVG 1.1//EN" "http://www.w3.org/Graphics/SVG/1.1/DTD/svg11.dtd"><svg t="1533798567724" class="icon" style="" viewBox="0 0 1024 1024" version="1.1" xmlns="http://www.w3.org/2000/svg" p-id="7222" xmlns:xlink="http://www.w3.org/1999/xlink" width="62" height="62"><defs><style type="text/css"></style></defs><path d="M903.68 64H109.824a45.888 45.888 0 0 0-45.696 45.696v619.136c0 25.088 20.608 45.696 45.696 45.696h306.88v134.4H332.032a25.536 25.536 0 1 0 0 51.072h349.888a25.536 25.536 0 1 0 0-51.072h-85.12v-134.4h306.88a45.888 45.888 0 0 0 45.696-45.696V109.696A45.888 45.888 0 0 0 903.68 64z m-358.4 844.48H468.224v-134.4H545.28v134.4z m334.4-199.552H133.824V129.6h745.856v579.328z" fill="#3F464E" p-id="7223"></path><path d="M284.544 415.232l61.376-61.376a22.72 22.72 0 0 0 0-32.256 22.72 22.72 0 0 0-32.256 0L236.608 398.656a23.744 23.744 0 0 0 0 33.152l77.504 77.056c8.96 8.96 23.296 8.96 32.256 0a22.72 22.72 0 0 0 0-32.256l-61.824-61.376z m168.448 104.384l-5.824-3.136a22.656 22.656 0 0 1-8.512-30.464l91.392-160.832a22.656 22.656 0 0 1 30.464-8.512l5.824 3.136a22.656 22.656 0 0 1 8.512 30.464L483.456 511.104a22.144 22.144 0 0 1-30.464 8.512z m325.248-120.96l-77.504-77.504a22.72 22.72 0 0 0-32.256 0 22.72 22.72 0 0 0 0 32.256l61.376 61.376-61.376 61.376a22.72 22.72 0 0 0 0 32.256c8.96 8.96 23.296 8.96 32.256 0L778.24 431.36a23.04 23.04 0 0 0 6.72-16.576 20.992 20.992 0 0 0-6.72-16.128z" fill="#3F464E" p-id="7224"></path></svg>