<?xml version="1.0" encoding="utf-8"?>
<!-- Generator: Adobe Illustrator 21.1.0, SVG Export Plug-In . SVG Version: 6.00 Build 0)  -->
<svg version="1.0" id="_x37C_" xmlns="http://www.w3.org/2000/svg" xmlns:xlink="http://www.w3.org/1999/xlink" x="0px" y="0px"
	 viewBox="0 0 258.9 169.5" style="enable-background:new 0 0 258.9 169.5;" xml:space="preserve">
<style type="text/css">
	.st0{fill-rule:evenodd;clip-rule:evenodd;fill:#FFFFFF;}
</style>
<path class="st0" d="M137.6,131.9C87.1,179.6,7.6,132.2,27,65c2.8-9.7,5.5-15,9.3-19.8c0.8-1,2.4-0.9,3,0.2c0.1,0.2,0.3,0.5,0.5,0.8
	c3.1,5,5.5,9.3,12.7,9.3c1.8,0,3.3,1.1,3.8,2.8c1,3.3,3.5,3.2,8.3,4.5c1.9,0.5,3.7,1.6,5,3.1c1,1.2,2.3,2,3.9,2.1
	c0.6,0,1.4-0.4,1.3-1.2c-0.2-1.1-1.5-1.5-2.2-2.2c-0.4-0.4-0.3-1-0.3-1.5c0.1-1.1-0.7-1.7-0.9-2.7c-0.1-0.6,0-1.2,0-1.8
	c0-0.7-0.1-1.4-0.3-2.1c0-0.1-0.1-0.2-0.1-0.3c-0.3-0.4-0.9-0.2-1.3-0.1c-0.8,0.3-1.5,0.6-2.3,0.8c-0.9,0.2-1.9,0.1-2.8-0.1
	c-0.1,0-0.2-0.1-0.3-0.1c-0.5-0.2-0.9-0.6-1.1-1.1c-1.6-3.6,0.2-7.3,4-8.4c5.4-1.6,8.9,1.3,13.2,2c0.5,0.1,1.1-0.2,1.4-0.6
	c0.9-1.3-0.2-1.2,0.3-3c0.1-2.3-4.4,1.1-0.5-5c3.7-5.7,5-4,11.6-5.9c0.5-0.1,0.8-0.6,0.7-1.1c-0.5-2.4-1.2-1.3-1.7-2.6
	c-0.2-0.5,0.2-1.1,0.7-1.1c1.2,0,2.3,0,3.4-0.3c0.8-0.2,1.3-1.1,1.2-1.9c-0.7-4.5-3.7-1.5-4.7-6c-0.1-0.5,0.1-1,0.6-1.2
	c7.7-3.8,11.8,14.4,20.5,3.5c0.3-0.4,0.9-0.6,1.4-0.4c2.9,1.1-0.2,1.7,5.5,2.8c5.7,1.1,15.2,8.9,16.7,11.1
	c-1.7-3.6-10.5-10.9-14.8-13.7C74-8.6,9.6,26.2,9.6,84.8c0,49.5,46.8,84.2,94.4,69.8C114.8,151.3,134.3,139.8,137.6,131.9z"/>
<path class="st0" d="M240.2,58L208,59.1l1-6.1c0,0-7.4-7.7-5.1-6.9c2.3,0.8,13.3,7.6,14.9,7.5C220.4,53.5,240.2,58,240.2,58z"/>
<path class="st0" d="M206.1,76.8h11.6l0.8-4.5h8.2l-0.8,4.5h5.2c0.2-1.1-0.1-2.5-0.8-4.3h7.8c0.6,1.6,0.8,3,0.6,4.5l-0.7,4.1h-12.8
	l-5.1,27.9c-0.6,3.1-3.6,4.7-9,4.7h-2.6l0.8-4.7h2.6l5.1-27.9h-11.6L206.1,76.8z"/>
<path class="st0" d="M184.5,112.7c0.6-3.2,2.1-5.6,4.7-7.2l2.5-13.6h-2.6l0.7-4.1h2.6l2-11.3h-2.8l0.8-4.3H206l-0.8,4.3h-3l-2,11.3
	h2.4l-0.7,4.1h-2.4l-2,11.3c0.8-0.1,1.8-0.2,3-0.2l-0.7,3.9c-3.7-0.1-5.9,1.8-6.6,5.7H184.5z"/>
<path class="st0" d="M232,114.2c-7.2,0-9.7-6.5-7.5-19.5h7.8c-1.7,10-1.5,15,0.5,15L232,114.2z"/>
<path class="st0" d="M211.9,98.8c-1.3,0-2.9,5-4.7,14.9h-8c2.3-12.9,6.8-19.3,13.5-19.3L211.9,98.8z"/>
<path class="st0" d="M225.1,89.6c1.9,0,3.2-2,3.9-5.9h7.8c-1.2,6.4-5.3,9.7-12.3,9.7L225.1,89.6z"/>
<path class="st0" d="M204.4,83.7c6.8,0,9.6,3.2,8.4,9.7H205c0.7-4.1,0.3-6-1.3-5.9L204.4,83.7z"/>
<polygon class="st0" points="135.3,108.8 154.3,108.8 155.8,100.7 138,100.7 138.7,96.6 156.5,96.6 157.7,89.8 139.8,89.8 
	140.5,85.7 185.1,85.7 184.3,89.8 166.3,89.8 165.1,96.6 182.9,96.6 182.2,100.7 164.4,100.7 162.9,108.8 181.9,108.8 181.2,112.9 
	134.6,112.9 "/>
<path class="st0" d="M139.6,77.4c12.8,0,19.5-1.8,20.2-5.4h9.6c-0.6,3.6,5.2,5.4,17.6,5.4l-0.7,3.9c-11.9,0-19.5-1.5-22.8-4.5
	c-4.4,3-12.6,4.5-24.6,4.5L139.6,77.4z"/>
<path class="st0" d="M88.5,96.5l1.7-9.3H88l0.8-4.3H93c3.7,0,5.4,1.3,4.9,3.9l-0.5,2.6C94.3,91.7,91.3,94,88.5,96.5z"/>
<path class="st0" d="M114.6,78.5l-4.2-0.6l-0.7,3.7c-3,1.8-5.9,3.7-8.7,5.6c0.2-0.9,0.5-1.9,0.7-3.1l1.8-10.1h12.5
	c0.1-0.8-0.1-1.5-0.5-2.2h11.1l0.2,0C123,73.7,118.3,76.3,114.6,78.5z"/>
<path class="st0" d="M128.9,80.6l0.6-3h-4.3c2.3-1.3,4.7-2.6,7.2-3.8c3.7,0.3,5.3,1.6,4.9,3.8l-1.3,7.3h-22.4
	c2.1-1.5,4.3-2.9,6.6-4.3H128.9L128.9,80.6z M96.7,98.4l-0.6,3.1c-0.4,2,0,3.8,1.1,5.2c1.3,1.2,3.9,1.8,8.1,1.8h26.4l-0.8,4.3h-26.6
	c-10.2,0-15.8-1.9-15.7-6C91.1,103.9,93.8,101.1,96.7,98.4L96.7,98.4z M108.1,88.8c-2.7,2.1-5.3,4.2-7.8,6.4l-2.2,11.9h7.2l1.4-7.7
	h2l-1.3,7.2h6.6l1.3-7.2h2l-1.3,7.2h6.8l1.3-7.2h1.8l-1.4,7.7l0,0c4.9,0,7.6-1.4,8.1-4.1l2-10.9c0.6-3.1-1.6-4.7-6.6-4.7h-11.4
	C113.9,87.4,111,87.8,108.1,88.8L108.1,88.8z M116.1,95.1l0.7-3.8h2l-0.7,3.8H116.1L116.1,95.1z M107.9,92.9
	c0.7-0.4,1.3-0.5,1.7-0.5c0.2-0.1,0.3-0.2,0.4-0.2l-0.5,2.9h-2L107.9,92.9L107.9,92.9z M126.7,95.1h-1.8l0.7-3.8h1.8L126.7,95.1z"/>
<path class="st0" d="M93,72.8h6.8c0.4,2.5,0.4,5.1,0,7.6H93C93.4,77.9,93.4,75.4,93,72.8z"/>
<path class="st0" d="M40.9,72.7h27L67.1,77c-0.5,0.5-1.1,1.1-2,2c-1.1,1-2.7,2.5-4.8,4.7c10.7-0.7,16.6-4.4,17.8-10.9h8.6
	c-1.8,10-12,15.1-30.5,15.2c-1.5,1.4-2.8,2.9-4,4.3c13.2,0.1,24.2,0.9,30.1,5.4l-7,8.1c0.8-4.8-9.9-9.2-26.4-9.2
	c-3.2,4.5-5.1,8.4-5.7,11.6h34.1c-1,1.2-2,2.4-3,3.7h3.4c-0.3,0.3-0.5,0.6-0.8,1H42.2c-5.5,0-8-1.4-7.4-4.7c1.7-8.7,9.2-19,22.4-31
	H40.1L40.9,72.7z"/>
<path class="st0" d="M206,55C154.5,56.8,108,79,81.5,112.8H73c27.8-36,78-59.1,133.1-58.7L206,55z"/>
<path class="st0" d="M47.7,123.8c0.3-1.3,0.6-2.2,0.9-2.8c0.3-0.6,0.8-1.1,1.4-1.5c0.6-0.4,1.3-0.7,2.2-0.9c0.9-0.2,1.9-0.3,3.2-0.3
	h4.2l-0.4,1.8h-4.5c-1.2,0-2.1,0.2-2.8,0.6c-0.6,0.4-1,1-1.3,1.9l7.9,0l-0.4,1.7h-7.9l-0.9,4.1h-2.8L47.7,123.8L47.7,123.8z
	 M67.9,120.1c-1,0-1.8,0.2-2.4,0.6c-0.6,0.4-1,1-1.2,1.8l7.7,0l-0.4,1.7h-7.7c-0.2,0.9-0.1,1.5,0.3,1.9c0.4,0.4,1.2,0.6,2.3,0.6H71
	l-0.4,1.8h-4.7c-1,0-1.8-0.1-2.4-0.2c-0.6-0.1-1.1-0.4-1.5-0.7c-0.6-0.4-1-0.9-1.2-1.6c-0.2-0.7-0.2-1.5,0-2.4
	c0.4-1.8,1.2-3.1,2.4-3.9c1.2-0.8,2.8-1.3,5-1.3h4.6l-0.4,1.8H67.9L67.9,120.1z M77.4,128.4h-2.9l2.2-10.1h2.9L77.4,128.4
	L77.4,128.4z M86.1,120.2l-0.5,2.3h4.1c0.6,0,1.1-0.1,1.4-0.3c0.3-0.2,0.5-0.5,0.6-0.9c0.1-0.4,0-0.7-0.2-0.9
	c-0.3-0.2-0.7-0.3-1.3-0.3H86.1L86.1,120.2z M88.8,126.7c0.6,0,1.1-0.1,1.4-0.3c0.3-0.2,0.5-0.5,0.6-0.9c0.1-0.4,0-0.7-0.2-0.9
	c-0.2-0.2-0.7-0.3-1.3-0.3h-4.1l-0.5,2.4H88.8L88.8,126.7z M88.8,128.4h-7.3l2.2-10.1h6.8c0.9,0,1.5,0,2.1,0.1
	c0.5,0.1,0.9,0.2,1.2,0.3c0.4,0.2,0.7,0.5,0.9,0.9c0.2,0.4,0.2,0.8,0.1,1.3c-0.1,0.6-0.4,1-0.8,1.4c-0.4,0.4-1,0.7-1.7,1
	c0.6,0.2,1.1,0.5,1.3,0.9c0.2,0.4,0.3,0.8,0.2,1.4c-0.2,0.9-0.7,1.6-1.5,2.1C91.5,128.2,90.3,128.4,88.8,128.4L88.8,128.4z
	 M99.8,128.4h-2.9l2.2-10.1h2.9L99.8,128.4L99.8,128.4z M110.8,120.4l-2.8,3.9h3.9L110.8,120.4L110.8,120.4z M109.9,118.4h2.9
	l3.4,10.1h-3.1l-0.7-2.4h-5.7l-1.7,2.4h-2.9L109.9,118.4L109.9,118.4z M120.8,118.4h3.5l3.8,7.2l1.4-7.2h2.8l-2.2,10.1H127l-4-7.6
	l-1.5,7.6h-2.8L120.8,118.4L120.8,118.4z M143.8,128.1c-0.5,0.2-1.1,0.3-1.8,0.4c-0.6,0.1-1.3,0.1-2,0.1c-2.2,0-3.8-0.4-4.7-1.3
	c-0.9-0.9-1.1-2.2-0.7-4c0.4-1.8,1.2-3.1,2.5-4c1.3-0.9,3-1.3,5.3-1.3c2.2,0,3.8,0.4,4.7,1.3c0.9,0.9,1.1,2.2,0.7,4
	c-0.2,0.7-0.4,1.4-0.7,2c-0.3,0.6-0.7,1.1-1.2,1.5l1.7,1.5h-3.3L143.8,128.1L143.8,128.1z M140.4,126.9c1.2,0,2.2-0.3,2.9-0.9
	c0.7-0.6,1.2-1.5,1.4-2.6c0.3-1.2,0.2-2.1-0.3-2.7c-0.5-0.6-1.3-0.9-2.5-0.9c-1.2,0-2.2,0.3-2.9,0.9c-0.7,0.6-1.2,1.5-1.4,2.7
	c-0.3,1.2-0.2,2.1,0.3,2.6C138.3,126.6,139.2,126.9,140.4,126.9L140.4,126.9z M154.8,118.4l-1.3,6c-0.2,0.9-0.1,1.6,0.2,2
	c0.4,0.4,1.1,0.6,2.2,0.6c1.1,0,1.9-0.2,2.4-0.6c0.5-0.4,0.9-1,1.1-2l1.3-6h2.8l-1.3,6.1c-0.2,0.7-0.3,1.3-0.6,1.7
	c-0.2,0.4-0.5,0.8-0.8,1c-0.6,0.5-1.4,0.8-2.2,1c-0.8,0.2-1.9,0.3-3,0.3c-1.2,0-2.2-0.1-2.9-0.3c-0.8-0.2-1.3-0.6-1.8-1
	c-0.2-0.2-0.3-0.6-0.4-1c0-0.4,0-1,0.2-1.7l1.3-6.1H154.8L154.8,118.4z M172,120.4l-2.8,3.9h3.9L172,120.4L172,120.4z M171.1,118.4
	l-7.8,10.1h2.9l1.7-2.4h5.7l0.7,2.4h3.1l-3.4-10.1H171.1L171.1,118.4z M182,118.4h3.5l3.8,7.2l1.4-7.2h2.8l-2.2,10.1h-3.2l-4-7.6
	l-1.5,7.6h-2.8L182,118.4L182,118.4z M205,128.1c-0.6,0.2-1.1,0.3-1.8,0.4c-0.6,0.1-1.3,0.1-2,0.1c-2.2,0-3.8-0.4-4.7-1.3
	c-0.9-0.9-1.1-2.2-0.7-4c0.4-1.8,1.2-3.1,2.5-4c1.3-0.9,3-1.3,5.3-1.3c2.2,0,3.8,0.4,4.7,1.3c0.9,0.9,1.1,2.2,0.7,4
	c-0.2,0.7-0.4,1.4-0.7,2c-0.3,0.6-0.7,1.1-1.2,1.5l1.7,1.5h-3.3L205,128.1L205,128.1z M201.6,126.9c1.2,0,2.2-0.3,2.9-0.9
	c0.7-0.6,1.2-1.5,1.4-2.6c0.3-1.2,0.2-2.1-0.3-2.7c-0.5-0.6-1.3-0.9-2.5-0.9c-1.2,0-2.2,0.3-2.9,0.9c-0.7,0.6-1.2,1.5-1.4,2.7
	c-0.3,1.2-0.2,2.1,0.3,2.6C199.6,126.6,200.4,126.9,201.6,126.9L201.6,126.9z M214.1,128.4h-2.9l2.2-10.1h2.9L214.1,128.4
	L214.1,128.4z M223.2,118.4l-1.3,6c-0.2,0.9-0.1,1.6,0.2,2c0.4,0.4,1.1,0.6,2.2,0.6c1.1,0,1.9-0.2,2.4-0.6c0.5-0.4,0.9-1,1.1-2
	l1.3-6h2.8l-1.3,6.1c-0.2,0.7-0.3,1.3-0.6,1.7c-0.2,0.4-0.5,0.8-0.8,1c-0.6,0.5-1.4,0.8-2.2,1c-0.8,0.2-1.9,0.3-3,0.3
	c-1.2,0-2.2-0.1-2.9-0.3c-0.8-0.2-1.3-0.6-1.8-1c-0.2-0.2-0.3-0.6-0.4-1c0-0.4,0-1,0.2-1.7l1.3-6.1H223.2z"/>
</svg>
