<?xml version="1.0" standalone="no"?><!DOCTYPE svg PUBLIC "-//W3C//DTD SVG 1.1//EN" "http://www.w3.org/Graphics/SVG/1.1/DTD/svg11.dtd"><svg t="1532673672348" class="icon" style="" viewBox="0 0 1024 1024" version="1.1" xmlns="http://www.w3.org/2000/svg" p-id="2051" xmlns:xlink="http://www.w3.org/1999/xlink" width="34" height="34"><defs><style type="text/css"></style></defs><path d="M423.960363 595.639932c-15.693424-6.594185-35.977399 0.202615-45.674249 15.295358-9.790994 15.189957-5.195326 33.269731 10.395768 40.371476 15.788591 7.192819 36.873816 0.393973 46.666856-15.189957C444.846042 620.425432 439.849238 602.337471 423.960363 595.639932L423.960363 595.639932zM462.631104 579.651796c-5.997598-2.394537-13.589506 0.503467-17.089214 6.39771-3.397377 5.892197-1.497097 12.691043 4.499477 15.189957 6.095835 2.49789 13.989619-0.400113 17.488303-6.494924C470.927047 588.747965 468.732056 581.850881 462.631104 579.651796L462.631104 579.651796zM438.149527 474.721978c-101.435227 9.993608-178.283476 71.852468-171.687244 138.209782 6.597255 66.354244 94.137007 112.024399 195.566094 102.134145 101.437274-9.993608 178.285522-71.854515 171.688267-138.313136C627.120412 510.402619 539.58066 464.730417 438.149527 474.721978L438.149527 474.721978zM527.089162 631.219265c-20.684088 46.667879-80.248695 71.554686-130.713041 55.260581-48.76668-15.685237-69.456908-63.652715-48.069809-106.926288 20.98801-42.37204 75.55172-66.357314 123.714649-53.865815C522.093381 538.581402 547.573705 585.54911 527.089162 631.219265L527.089162 631.219265zM511.997442 64.298422c-247.234871 0-447.699532 200.465684-447.699532 447.696462 0 247.235894 200.464661 447.706695 447.699532 447.706695 247.235894 0 447.703625-200.469777 447.703625-447.706695C959.701067 264.764106 759.233336 64.298422 511.997442 64.298422L511.997442 64.298422zM462.631104 759.432369c-127.113049 0-257.025864-61.36051-257.025864-162.390507 0-52.766784 33.576723-113.824395 91.333148-171.485653 77.152171-76.847226 167.189813-111.922069 200.970174-78.145801 14.889105 14.888082 16.386202 40.572044 6.79373 71.354118-4.995781 15.485693 14.5903 6.892991 14.5903 6.892991 62.359256-25.983791 116.824729-27.584242 136.710638 0.802272 10.594289 15.087627 9.592472 36.274158-0.200568 60.754712-4.494361 11.2973 1.400906 13.09218 9.993608 15.59007 35.177174 10.896164 74.253144 37.074384 74.253144 83.446527C740.047368 663.000086 629.21819 759.432369 462.631104 759.432369L462.631104 759.432369zM692.677501 438.349583c4.098341-12.692067 1.497097-27.080775-8.095375-37.675064-9.593496-10.592242-23.680329-14.588253-36.773532-11.792581l0 0c-10.895141 2.400676-21.587668-4.597715-23.984251-15.488763-2.301416-10.895141 4.597715-21.587668 15.489786-23.886013 26.680663-5.692652 55.562457 2.596128 75.149561 24.184819 19.587104 21.684882 24.88169 51.166333 16.488533 77.04677-3.396353 10.594289-14.789844 16.388249-25.384134 12.994965C695.077154 460.33327 689.280124 448.943872 692.677501 438.349583L692.677501 438.349583 692.677501 438.349583 692.677501 438.349583 692.677501 438.349583zM810.400692 476.225215C810.400692 476.323453 810.400692 476.323453 810.400692 476.225215c-4.000104 12.389168-17.288758 19.084661-29.579689 15.08865-12.393261-3.997034-19.089777-17.090237-15.09172-29.483498l0 0c12.193717-37.771255 4.498454-80.843236-24.085558-112.425535-28.579919-31.573089-70.749344-43.666522-109.727077-35.369555-12.69309 2.692319-25.183566-5.395894-27.882024-17.990746-2.693342-12.590759 5.395894-25.082258 18.088984-27.780717l0 0c54.763255-11.593036 114.128317 5.398964 154.398486 49.76645C816.696072 362.601388 827.586097 423.159626 810.400692 476.225215L810.400692 476.225215zM810.400692 476.225215" p-id="2052" fill="#f3250a"></path></svg>